<?xml version="1.0" standalone="no"?>
<!DOCTYPE svg PUBLIC "-//W3C//DTD SVG 1.1//EN" "http://www.w3.org/Graphics/SVG/1.1/DTD/svg11.dtd" >
<svg>
<metadata>
Created by FontForge 20090622 at Mon Sep 19 13:11:33 2016
 By deploy user
Copyright 1999, 2001 Double Alex Font Studio.
</metadata>
<defs>
<font id="Plumb-Light" horiz-adv-x="514" >
  <font-face 
    font-family="Plumb Light"
    font-weight="300"
    font-stretch="normal"
    units-per-em="1000"
    panose-1="0 0 0 0 0 0 0 0 0 0"
    ascent="800"
    descent="-200"
    x-height="482"
    cap-height="712"
    bbox="-18 -236 1099 927"
    underline-thickness="50"
    underline-position="-75"
    unicode-range="U+0020-U+2265"
  />
<missing-glyph horiz-adv-x="1000" 
 />
    <glyph glyph-name=".notdef" horiz-adv-x="1000" 
 />
    <glyph glyph-name=".null" horiz-adv-x="0" 
 />
    <glyph glyph-name="nonmarkingreturn" horiz-adv-x="333" 
 />
    <glyph glyph-name="space" unicode=" " horiz-adv-x="255" 
 />
    <glyph glyph-name="exclam" unicode="!" horiz-adv-x="304" 
d="M195 712l-6 -520h-44l-6 520h56zM207 38q0 -17 -11.5 -29t-28.5 -12t-28.5 11.5t-11.5 28.5t11.5 28.5t28.5 11.5q16 0 28 -11.5t12 -27.5z" />
    <glyph glyph-name="quotedbl" unicode="&#x22;" horiz-adv-x="408" 
d="M313 556h-63v156h63v-156zM158 556h-63v156h63v-156z" />
    <glyph glyph-name="numbersign" unicode="#" horiz-adv-x="639" 
d="M588 437h-100l-25 -153h96v-44h-103l-38 -240h-51l39 240h-176l-37 -240h-51l38 240h-96v44h103l25 153h-99v45h105l36 230h52l-37 -230h175l36 230h50l-36 -230h94v-45zM437 437h-175l-25 -153h175z" />
    <glyph glyph-name="dollar" unicode="$" horiz-adv-x="587" 
d="M528 190q0 -76 -48 -127q-26 -27 -62 -44t-108 -24v-109h-45v108q-70 5 -117 25q-46 20 -97 69l38 38q49 -46 85 -63q35 -15 91 -20v295l-16 2q-81 10 -132 57t-51 126t48 130q51 54 151 64v89h45v-89q58 -5 94 -20q39 -16 88 -56l-35 -35q-42 35 -72 48q-30 12 -75 17
v-290l29 -5q90 -16 127 -47q62 -51 62 -139zM265 388v283q-44 -5 -70 -18q-76 -36 -76 -128q0 -59 35.5 -92.5t110.5 -44.5zM474 190q0 64 -39 99q-31 29 -107 38q-4 1 -9 2t-9 1v-287q90 9 129 51q35 38 35 96z" />
    <glyph glyph-name="percent" unicode="%" horiz-adv-x="828" 
d="M759 127q0 -59 -36.5 -96.5t-94.5 -37.5t-95 37.5t-37 96.5v107q0 59 37 96.5t95 37.5t94.5 -37.5t36.5 -96.5v-107zM603 712l-332 -712h-45l332 712h45zM332 478q0 -59 -36.5 -96t-94.5 -37t-95 37t-37 96v107q0 59 37 96.5t95 37.5t94.5 -37.5t36.5 -96.5v-107z
M715 129v103q0 98 -88 98q-87 0 -87 -98v-103q0 -98 88 -98q87 0 87 98zM288 480v103q0 98 -88 98q-87 0 -87 -98v-103q0 -97 88 -97q87 0 87 97z" />
    <glyph glyph-name="ampersand" unicode="&#x26;" horiz-adv-x="746" 
d="M662 0h-69l-69 84q-32 -30 -62 -48q-72 -42 -157 -42q-98 0 -159.5 56t-61.5 147q0 69 39 119q22 27 44.5 45.5t79.5 56.5q-39 47 -55 75q-24 41 -24 84q0 59 42 100t103 41t103 -41.5t42 -100.5q0 -38 -19 -68t-63 -61q-8 -6 -26 -18l-27 -18l204 -247q22 35 30 63
q11 34 12 114h53q-1 -67 -10 -106q-13 -55 -52 -111zM405 576q0 40 -26.5 67t-65.5 27t-65 -26t-26 -66q0 -28 15 -55q15 -26 55 -76l41 28q40 27 56 49.5t16 51.5zM494 121l-216 261q-71 -48 -101 -80q-39 -42 -39 -104q0 -70 46.5 -113t122.5 -43q46 0 86 15q42 16 101 64
z" />
    <glyph glyph-name="quotesingle" unicode="'" horiz-adv-x="253" 
d="M158 556h-63v156h63v-156z" />
    <glyph glyph-name="parenleft" unicode="(" horiz-adv-x="284" 
d="M217 -59l-35 -35q-40 40 -50 54q-35 48 -35 119v554q0 56 19 93q15 29 66 80l35 -35q-44 -44 -54 -65q-15 -32 -15 -79v-542q0 -49 15 -79q10 -21 54 -65z" />
    <glyph glyph-name="parenright" unicode=")" horiz-adv-x="284" 
d="M187 79q0 -55 -19 -93q-14 -28 -66 -80l-37 37q45 45 54 65q14 31 14 77v542q0 47 -14 77q-9 20 -54 65l37 37q37 -37 50 -54q35 -47 35 -119v-554z" />
    <glyph glyph-name="asterisk" unicode="*" horiz-adv-x="467" 
d="M395 476l-22 -38l-120 73l3 -141h-45l3 141l-120 -73l-22 38l123 68l-123 68l22 38l120 -73l-3 141h45l-3 -141l120 73l22 -38l-123 -68z" />
    <glyph glyph-name="plus" unicode="+" 
d="M461 240h-180v-181h-47v181h-181v47h181v180h47v-180h180v-47z" />
    <glyph glyph-name="comma" unicode="," horiz-adv-x="258" 
d="M175 89l-80 -203h-49l55 203h74z" />
    <glyph glyph-name="hyphen" unicode="-" horiz-adv-x="426" 
d="M344 240h-262v47h262v-47z" />
    <glyph glyph-name="period" unicode="." horiz-adv-x="258" 
d="M175 44q0 -19 -13.5 -33t-32.5 -14t-32.5 13.5t-13.5 32.5t13.5 32.5t32.5 13.5t32.5 -13.5t13.5 -31.5z" />
    <glyph glyph-name="slash" unicode="/" horiz-adv-x="338" 
d="M338 786l-285 -860h-53l285 860h53z" />
    <glyph glyph-name="zero" unicode="0" 
d="M444 184q0 -83 -52.5 -136.5t-134.5 -53.5t-134.5 53.5t-52.5 136.5v344q0 83 52.5 136.5t134.5 53.5t134.5 -53.5t52.5 -136.5v-344zM393 189v334q0 68 -37 109t-99 41t-99 -41t-37 -109v-334q0 -68 37 -109t99 -41t99 41t37 109z" />
    <glyph glyph-name="one" unicode="1" 
d="M313 0h-51v654l-129 -114v61l129 111h51v-712z" />
    <glyph glyph-name="two" unicode="2" 
d="M449 0h-377v45l286 375q40 53 40 111q0 65 -37 103.5t-100 38.5t-100 -37q-16 -16 -25 -38q-11 -26 -12 -67h-51q3 50 15 80q22 51 67 79t106 28q85 0 136.5 -51t51.5 -137q0 -72 -49 -136l-267 -349h316v-45z" />
    <glyph glyph-name="three" unicode="3" 
d="M447 192q0 -91 -55 -145t-149 -54q-134 0 -182 101q-14 29 -19 79h51q3 -34 15 -59q38 -76 136 -76q69 0 110.5 42.5t41.5 113.5q0 148 -155 148h-12v45h12q68 0 104.5 36t36.5 105q0 67 -37.5 106.5t-101.5 39.5q-120 0 -141 -130h-51q7 49 21 76q24 47 69 73t103 26
q85 0 137 -52.5t52 -137.5q0 -77 -45 -124q-20 -20 -56 -37q43 -17 63 -36q52 -48 52 -140z" />
    <glyph glyph-name="four" unicode="4" 
d="M471 117h-95v-117h-51v117h-282v45l262 550h54l-262 -550h228v226h51v-226h95v-45z" />
    <glyph glyph-name="five" unicode="5" 
d="M451 229q0 -71 -12.5 -113t-42.5 -72q-51 -51 -138 -51q-166 0 -184 164h51q6 -38 17 -59q33 -60 114 -60q63 0 101 36q43 43 43 158q0 100 -32 145.5t-103 45.5q-99 0 -127 -75h-45v364h342v-45h-297v-252q25 26 49 36q39 17 85 17q92 0 135.5 -58.5t43.5 -180.5z" />
    <glyph glyph-name="six" unicode="6" 
d="M448 201q0 -93 -52 -150t-137 -57t-136.5 54.5t-51.5 144.5q0 69 40 150l183 369h51l-164 -329q40 17 82 17q83 0 134 -55t51 -144zM397 194q0 74 -37.5 117.5t-100.5 43.5t-100 -43t-37 -115t37.5 -115t99.5 -43q61 0 99.5 43t38.5 112z" />
    <glyph glyph-name="seven" unicode="7" 
d="M459 667l-252 -667h-52l252 667h-270v-112h-51v157h373v-45z" />
    <glyph glyph-name="eight" unicode="8" 
d="M460 192q0 -85 -58 -141.5t-145 -56.5t-145 56.5t-58 141.5q0 72 47 127q25 27 66 51q-39 23 -56 43q-42 48 -42 118q0 81 53 134t135 53t135 -53t53 -134q0 -69 -42 -118q-18 -21 -55 -43q44 -27 65 -51q47 -53 47 -127zM394 529q0 64 -38 104t-99 40q-60 0 -98.5 -39.5
t-38.5 -101.5t38 -101.5t99 -39.5q59 0 98 39t39 99zM409 189q0 67 -43.5 112t-108.5 45q-64 0 -108 -44.5t-44 -109.5t43.5 -109t108.5 -44q64 0 108 44t44 106z" />
    <glyph glyph-name="nine" unicode="9" 
d="M443 518q0 -69 -40 -149l-183 -369h-51l164 329q-40 -17 -83 -17q-83 0 -133.5 54.5t-50.5 144.5q0 93 52 150t137 57t136.5 -54.5t51.5 -145.5zM392 512q0 74 -37 117.5t-101 43.5q-62 0 -99.5 -43t-37.5 -114q0 -72 37.5 -115.5t99.5 -43.5t100 42.5t38 112.5z" />
    <glyph glyph-name="colon" unicode=":" horiz-adv-x="258" 
d="M175 404q0 -19 -13.5 -33t-32.5 -14t-32.5 13.5t-13.5 32.5t13.5 32.5t32.5 13.5t32.5 -13.5t13.5 -31.5zM175 44q0 -19 -13.5 -33t-32.5 -14t-32.5 13.5t-13.5 32.5t13.5 32.5t32.5 13.5t32.5 -13.5t13.5 -31.5z" />
    <glyph glyph-name="semicolon" unicode=";" horiz-adv-x="258" 
d="M175 404q0 -19 -13.5 -33t-32.5 -14t-32.5 13.5t-13.5 32.5t13.5 32.5t32.5 13.5t32.5 -13.5t13.5 -31.5zM175 89l-80 -203h-49l55 203h74z" />
    <glyph glyph-name="less" unicode="&#x3c;" 
d="M473 65l-432 173v54l432 174v-54l-370 -147l370 -146v-54z" />
    <glyph glyph-name="equal" unicode="=" 
d="M461 316h-408v47h408v-47zM461 163h-408v47h408v-47z" />
    <glyph glyph-name="greater" unicode="&#x3e;" 
d="M473 238l-432 -173v54l370 146l-370 147v54l432 -174v-54z" />
    <glyph glyph-name="question" unicode="?" horiz-adv-x="488" 
d="M438 543q0 -54 -44 -120l-85 -125q-18 -26 -18 -60v-47h-51v45q0 46 29 90l84 124q34 50 34 92q0 56 -37 93.5t-92 37.5q-56 0 -90 -35t-37 -96h-51q4 81 53 128.5t126 47.5q76 0 127.5 -50.5t51.5 -124.5zM305 38q0 -17 -11.5 -29t-28.5 -12t-28.5 11.5t-11.5 28.5
t11.5 28.5t28.5 11.5q16 0 28 -11.5t12 -27.5z" />
    <glyph glyph-name="at" unicode="@" horiz-adv-x="697" 
d="M620 0h-51v59q-27 -34 -55 -48q-34 -18 -82 -18q-91 0 -141 65q-43 57 -43 183t39 181q48 67 143 67q44 0 80 -17q30 -15 59 -51v89q0 78 -40 119.5t-115 41.5h-132q-71 0 -113 -42q-23 -23 -32 -49t-9 -70v-353q0 -52 12 -76t50 -53l-35 -35q-46 34 -61 62
q-17 31 -17 102v350q0 94 53.5 149.5t142.5 55.5h150q89 0 143 -56t54 -149v-507zM569 240q0 107 -32 155.5t-103 48.5t-103 -48t-32 -155t32 -155t103 -48t103 48t32 154z" />
    <glyph glyph-name="A" unicode="A" horiz-adv-x="600" 
d="M586 0h-58l-62 173h-332l-62 -173h-58l262 712h48zM449 221l-149 419l-149 -419h298z" />
    <glyph glyph-name="B" unicode="B" horiz-adv-x="671" 
d="M589 192q0 -90 -55.5 -141t-153.5 -51h-270v712h262q92 0 149 -51t57 -133q0 -78 -54 -129q-21 -19 -57 -33q42 -17 66 -38q56 -51 56 -136zM524 526q0 65 -42 101.5t-116 36.5h-202v-276h202q75 0 116.5 36.5t41.5 101.5zM535 194q0 67 -43.5 106.5t-117.5 39.5h-210
v-292h210q74 0 117.5 39.5t43.5 106.5z" />
    <glyph glyph-name="C" unicode="C" horiz-adv-x="596" 
d="M527 83q-51 -46 -95 -67.5t-104 -21.5q-104 0 -180 73q-43 41 -54.5 99t-11.5 190q0 140 9 182q13 63 57 107q73 73 179 73q59 0 105 -22.5t95 -66.5l-36 -36q-42 40 -77.5 58.5t-85.5 18.5q-65 0 -119 -40t-64 -103q-9 -52 -9 -171v-30q0 -104 11 -150t44 -79
q55 -55 137 -55q50 0 85.5 18.5t77.5 58.5z" />
    <glyph glyph-name="D" unicode="D" horiz-adv-x="678" 
d="M596 371v-14q0 -50 -1 -79t-7 -74t-21 -79.5t-40 -59.5q-63 -65 -178 -65h-239v712h239q113 0 178 -65q26 -26 41 -57t20.5 -76t6.5 -67.5t1 -75.5zM542 314v52q0 89 -8 147q-8 55 -45 96q-53 55 -153 55h-172v-616h172q101 0 153 55q53 57 53 211z" />
    <glyph glyph-name="E" unicode="E" horiz-adv-x="598" 
d="M542 0h-432v712h432v-48h-378v-281h322v-48h-322v-287h378v-48z" />
    <glyph glyph-name="F" unicode="F" horiz-adv-x="576" 
d="M542 664h-378v-293h322v-48h-322v-323h-54v712h432v-48z" />
    <glyph glyph-name="G" unicode="G" horiz-adv-x="648" 
d="M571 248q0 -110 -58 -172q-76 -82 -187 -82q-105 0 -178 73q-50 50 -57 106q-9 72 -9 183v37q0 111 13 161.5t53 90.5q73 73 180 73q55 0 99 -19q29 -12 51.5 -28t59.5 -52l-36 -36q-45 43 -69 58q-45 29 -104 29q-83 0 -138 -55q-40 -40 -46 -88q-9 -65 -9 -171v-30
q0 -104 11 -150t44 -79q53 -55 134 -55q93 0 149 69q43 53 43 141v64h-191v48h245v-116z" />
    <glyph glyph-name="H" unicode="H" horiz-adv-x="699" 
d="M589 0h-54v335h-371v-335h-54v712h54v-329h371v329h54v-712z" />
    <glyph glyph-name="I" unicode="I" horiz-adv-x="274" 
d="M164 0h-54v712h54v-712z" />
    <glyph glyph-name="J" unicode="J" horiz-adv-x="498" 
d="M398 210q0 -98 -58 -157t-155 -59q-47 0 -89 17q-30 12 -66 44l37 37q28 -28 54 -39t64 -11q77 0 118 46.5t41 132.5v491h54v-502z" />
    <glyph glyph-name="K" unicode="K" horiz-adv-x="645" 
d="M627 0h-64l-229 399l-170 -206v-193h-54v712h54v-445l361 445h65l-220 -272z" />
    <glyph glyph-name="L" unicode="L" horiz-adv-x="572" 
d="M542 0h-432v712h54v-664h378v-48z" />
    <glyph glyph-name="M" unicode="M" horiz-adv-x="818" 
d="M708 0h-54v587l-216 -487h-54l-220 487v-587h-54v712h54l248 -549l242 549h54v-712z" />
    <glyph glyph-name="N" unicode="N" horiz-adv-x="739" 
d="M629 0h-54l-411 619v-619h-54v712h54l411 -617v617h54v-712z" />
    <glyph glyph-name="O" unicode="O" horiz-adv-x="652" 
d="M570 356q0 -135 -11.5 -190.5t-54.5 -98.5q-73 -73 -178 -73t-178 73q-44 44 -55 101t-11 188v24q0 75 2 110t17 79t47 76q73 73 178 73t178 -73q12 -12 21.5 -25t16.5 -29.5l12 -28.5t8 -32.5t5 -32t2.5 -35.5t0.5 -33.5v-37v-35.5zM516 346v27q0 114 -10.5 161
t-44.5 81q-55 55 -135 55t-135 -55q-35 -35 -45 -88t-10 -171v-31q0 -103 11 -149t44 -79q55 -55 135 -55t135 55q27 27 39.5 68t14 73.5t1.5 107.5z" />
    <glyph glyph-name="P" unicode="P" horiz-adv-x="631" 
d="M586 507q0 -93 -58.5 -149t-156.5 -56h-207v-302h-54v712h261q98 0 156.5 -56t58.5 -149zM532 507q0 75 -43.5 116t-123.5 41h-201v-314h201q80 0 123.5 41t43.5 116z" />
    <glyph glyph-name="Q" unicode="Q" horiz-adv-x="651" 
d="M603 0l-36 -36l-84 84q-41 -29 -71 -39q-42 -15 -86 -15q-105 0 -178 73q-50 50 -57 106q-5 36 -9 183q0 6 -0.5 18.5t-0.5 18.5q0 111 13.5 161.5t53.5 90.5q73 73 178 73t178 -73q49 -49 57 -106q5 -39 9 -183q0 -6 0.5 -18t0.5 -18q0 -127 -20 -181q-9 -26 -32 -55z
M516 356q1 126 -9.5 175t-45.5 84q-55 55 -135 55t-135 -55q-40 -40 -46 -88q-9 -63 -9 -171v-31q0 -103 11 -149t44 -79q55 -55 135 -55q30 0 65 11q26 9 56 31l-100 100l36 36l99 -99q14 23 20 42q11 43 13 123z" />
    <glyph glyph-name="R" unicode="R" horiz-adv-x="657" 
d="M593 0h-63l-170 328h-196v-328h-54v712h271q93 0 148.5 -52t55.5 -139q0 -77 -43 -128q-38 -45 -121 -64zM531 520q0 68 -41.5 106t-115.5 38h-210v-288h210q74 0 115.5 38t41.5 106z" />
    <glyph glyph-name="S" unicode="S" horiz-adv-x="587" 
d="M528 190q0 -92 -66 -144t-182 -52q-71 0 -128 23q-49 21 -101 71l38 38q53 -50 93 -66q45 -18 104 -18q89 0 138.5 39t49.5 109q0 64 -39 99q-29 27 -103 38l-83 13q-183 29 -183 183q0 91 60 143t166 52q61 0 105 -17q41 -15 95 -60l-35 -35q-43 37 -79 51
q-39 15 -91 15q-79 0 -123.5 -39t-44.5 -108q0 -62 37 -93q43 -35 106 -44l77 -12q86 -13 127 -47q62 -51 62 -139z" />
    <glyph glyph-name="T" unicode="T" horiz-adv-x="539" 
d="M509 664h-213v-664h-54v664h-212v48h479v-48z" />
    <glyph glyph-name="U" unicode="U" horiz-adv-x="688" 
d="M588 231q0 -104 -68.5 -170.5t-175.5 -66.5t-175.5 66.5t-68.5 170.5v481h54v-474q0 -88 52 -142t138 -54t138 54t52 142v474h54v-481z" />
    <glyph glyph-name="V" unicode="V" horiz-adv-x="534" 
d="M524 712l-234 -712h-46l-234 712h57l200 -617l200 617h57z" />
    <glyph glyph-name="W" unicode="W" horiz-adv-x="842" 
d="M822 712l-178 -712h-55l-168 620l-168 -620h-55l-178 712h57l150 -619l166 619h56l166 -619l150 619h57z" />
    <glyph glyph-name="X" unicode="X" horiz-adv-x="532" 
d="M514 0h-63l-186 317l-186 -317h-61l218 365l-204 347h63l170 -299l171 299h62l-204 -347z" />
    <glyph glyph-name="Y" unicode="Y" horiz-adv-x="494" 
d="M484 712l-210 -417v-295h-54v295l-210 417h58l181 -360l177 360h58z" />
    <glyph glyph-name="Z" unicode="Z" horiz-adv-x="559" 
d="M496 0h-433v57l375 607h-360v48h418v-48l-378 -616h378v-48z" />
    <glyph glyph-name="bracketleft" unicode="[" horiz-adv-x="290" 
d="M245 -74h-148v860h148v-45h-97v-770h97v-45z" />
    <glyph glyph-name="backslash" unicode="\" horiz-adv-x="338" 
d="M338 -74h-53l-285 860h53z" />
    <glyph glyph-name="bracketright" unicode="]" horiz-adv-x="290" 
d="M193 -74h-148v42h100v776h-100v42h148v-860z" />
    <glyph glyph-name="asciicircum" unicode="^" 
d="M438 422h-51l-130 242l-130 -242h-51l158 296h46z" />
    <glyph glyph-name="underscore" unicode="_" horiz-adv-x="600" 
d="M600 -160h-600v38h600v-38z" />
    <glyph glyph-name="grave" unicode="`" horiz-adv-x="500" 
d="M297 590h-58l-106 147h67z" />
    <glyph glyph-name="a" unicode="a" horiz-adv-x="524" 
d="M431 0h-51v48q-33 -30 -57 -40q-34 -14 -92 -14q-175 0 -175 139q0 65 44.5 101.5t123.5 36.5h156v54q0 61 -33.5 89.5t-106.5 28.5q-50 0 -82 -16q-24 -13 -47 -45l-37 32q30 37 60 53q42 21 108 21q189 0 189 -158v-330zM380 168v62h-150q-123 0 -123 -97
q0 -49 31.5 -71.5t99.5 -22.5q76 0 109 30.5t33 98.5z" />
    <glyph glyph-name="b" unicode="b" horiz-adv-x="540" 
d="M471 240q0 -246 -183 -246q-48 0 -82 17q-26 12 -58 51v-62h-51v712h51v-292q31 38 58 51q36 17 81 17q184 0 184 -248zM420 240q0 106 -32.5 154.5t-103.5 48.5t-103.5 -48.5t-32.5 -153.5t32.5 -153.5t103.5 -48.5t103.5 48.5t32.5 152.5z" />
    <glyph glyph-name="c" unicode="c" horiz-adv-x="493" 
d="M440 68q-38 -41 -71 -57.5t-85 -16.5q-101 0 -158 66t-57 181t57 181t158 66q51 0 84 -16.5t72 -57.5l-35 -32q-29 32 -56 46.5t-66 14.5q-86 0 -130 -64q-33 -47 -33 -139t33 -137q45 -64 129 -64q40 0 66.5 14.5t56.5 46.5z" />
    <glyph glyph-name="d" unicode="d" horiz-adv-x="540" 
d="M443 0h-51v62q-30 -36 -58 -51q-36 -17 -82 -17q-183 0 -183 247t183 247q48 0 82 -17q28 -15 58 -51v292h51v-712zM392 240q0 106 -32.5 154.5t-103.5 48.5t-103.5 -48.5t-32.5 -153.5t32.5 -153.5t103.5 -48.5t103.5 48.5t32.5 152.5z" />
    <glyph glyph-name="e" unicode="e" horiz-adv-x="523" 
d="M455 230h-335q3 -68 17 -102q36 -88 141 -88q38 0 68 12q26 11 64 46l38 -30q-44 -43 -81 -58q-38 -16 -91 -16q-207 0 -207 250q0 114 51.5 179t141.5 65t141.5 -62.5t51.5 -172.5v-23zM404 271q-3 49 -9 69q-14 49 -49.5 76t-83.5 27q-42 0 -75 -21.5t-50 -59.5
q-14 -33 -17 -91h284z" />
    <glyph glyph-name="f" unicode="f" horiz-adv-x="304" 
d="M272 444h-109v-444h-51v444h-66v38h66v104q0 59 31 92.5t85 33.5h44v-45h-35q-74 0 -74 -80v-105h109v-38z" />
    <glyph glyph-name="g" unicode="g" horiz-adv-x="540" 
d="M443 -27q0 -96 -54 -152.5t-147 -56.5q-44 0 -76 12q-34 13 -79 52l34 34q36 -32 63 -43q24 -10 60 -10q70 0 109 43.5t39 123.5v86q-30 -36 -58 -51q-36 -17 -82 -17q-183 0 -183 247t183 247q48 0 82 -17q28 -15 58 -51v62h51v-509zM392 240q0 106 -32.5 154.5
t-103.5 48.5t-103.5 -48.5t-32.5 -153.5t32.5 -153.5t103.5 -48.5t103.5 48.5t32.5 152.5z" />
    <glyph glyph-name="h" unicode="h" horiz-adv-x="559" 
d="M468 0h-51v299q0 70 -34.5 107t-98.5 37t-100 -38t-36 -106v-299h-51v712h51v-287q31 32 60 46q35 17 83 17q82 0 129.5 -48.5t47.5 -131.5v-308z" />
    <glyph glyph-name="i" unicode="i" horiz-adv-x="245" 
d="M160 682q0 -16 -11 -27.5t-26 -11.5q-16 0 -27 11t-11 26q0 16 11 27t26 11t26.5 -11t11.5 -25zM148 0h-51v482h51v-482z" />
    <glyph glyph-name="j" unicode="j" horiz-adv-x="245" 
d="M160 682q0 -16 -11 -27.5t-26 -11.5q-16 0 -27 11t-11 26q0 16 11 27t26 11t26.5 -11t11.5 -25zM148 -105q0 -59 -30.5 -92t-85.5 -33h-44v45h35q40 0 57 18.5t17 62.5v586h51v-587z" />
    <glyph glyph-name="k" unicode="k" horiz-adv-x="527" 
d="M487 0h-63l-166 265l-110 -127v-138h-51v712h51v-502l239 272h65l-159 -180z" />
    <glyph glyph-name="l" unicode="l" horiz-adv-x="245" 
d="M148 0h-51v712h51v-712z" />
    <glyph glyph-name="m" unicode="m" horiz-adv-x="878" 
d="M788 0h-51v299q0 70 -34 107t-98 37q-63 0 -100 -36.5t-37 -98.5v-308h-51v299q0 70 -34.5 107t-98.5 37t-100 -38t-36 -106v-299h-51v482h51v-57q32 33 61 46q39 17 82 17q75 0 120 -42q18 -17 35 -46q23 33 43 48q50 40 121 40q82 0 130 -48.5t48 -131.5v-308z" />
    <glyph glyph-name="n" unicode="n" horiz-adv-x="559" 
d="M468 0h-51v299q0 70 -34.5 107t-98.5 37t-100 -38t-36 -106v-299h-51v482h51v-57q31 32 60 46q35 17 83 17q82 0 129.5 -48.5t47.5 -131.5v-308z" />
    <glyph glyph-name="o" unicode="o" horiz-adv-x="526" 
d="M457 244q0 -136 -60 -197q-53 -53 -134 -53t-134 53q-60 60 -60 194t60 194q53 53 134 53q93 0 143.5 -63.5t50.5 -180.5zM406 239q0 66 -9.5 102t-33.5 61q-39 41 -100 41t-100 -41q-43 -44 -43 -161q0 -64 9.5 -100t33.5 -61q39 -41 100 -41t100 41q43 44 43 159z" />
    <glyph glyph-name="p" unicode="p" horiz-adv-x="540" 
d="M471 240q0 -246 -183 -246q-52 0 -82 15.5t-58 52.5v-292h-51v712h51v-62q30 38 59 53t80 15q184 0 184 -248zM420 240q0 106 -32.5 154.5t-103.5 48.5t-103.5 -48.5t-32.5 -153.5t32.5 -153.5t103.5 -48.5t103.5 48.5t32.5 152.5z" />
    <glyph glyph-name="q" unicode="q" horiz-adv-x="540" 
d="M443 -230h-51v292q-30 -36 -58 -51q-36 -17 -82 -17q-183 0 -183 247t183 247q48 0 82 -17q28 -15 58 -51v62h51v-712zM392 240q0 106 -32.5 154.5t-103.5 48.5t-103.5 -48.5t-32.5 -153.5t32.5 -153.5t103.5 -48.5t103.5 48.5t32.5 152.5z" />
    <glyph glyph-name="r" unicode="r" horiz-adv-x="409" 
d="M405 442l-37 -37q-23 22 -41.5 30t-46.5 8q-59 0 -95.5 -40.5t-36.5 -105.5v-297h-51v482h51v-64q16 22 30 33q46 37 113 37q35 0 64 -12q22 -9 50 -34z" />
    <glyph glyph-name="s" unicode="s" horiz-adv-x="494" 
d="M438 139q0 -68 -52.5 -106.5t-146.5 -38.5q-62 0 -114 20q-36 15 -75 49l35 35q32 -29 59 -41q44 -18 101 -18q143 0 143 98q0 74 -92 81l-80 7q-145 12 -145 125q0 63 47 100.5t126 37.5q51 0 101 -16q35 -12 68 -35l-34 -34q-29 20 -57 29q-38 12 -78 12
q-59 0 -91 -24.5t-32 -69.5q0 -37 23.5 -56.5t74.5 -23.5l78 -7q73 -7 107 -36.5t34 -87.5z" />
    <glyph glyph-name="t" unicode="t" horiz-adv-x="325" 
d="M269 0h-44q-54 0 -85 33.5t-31 92.5v318h-66v38h66v154h51v-154h109v-38h-109v-319q0 -80 74 -80h35v-45z" />
    <glyph glyph-name="u" unicode="u" horiz-adv-x="559" 
d="M462 0h-51v57q-31 -32 -61 -46q-34 -17 -82 -17q-82 0 -129.5 48.5t-47.5 131.5v308h51v-299q0 -70 34.5 -107t98.5 -37t100 38t36 106v299h51v-482z" />
    <glyph glyph-name="v" unicode="v" horiz-adv-x="430" 
d="M416 482l-176 -482h-50l-176 482h56l145 -422l145 422h56z" />
    <glyph glyph-name="w" unicode="w" horiz-adv-x="712" 
d="M698 482l-154 -482h-52l-136 402l-136 -402h-52l-154 482h56l123 -422l138 422h50l138 -422l123 422h56z" />
    <glyph glyph-name="x" unicode="x" horiz-adv-x="460" 
d="M420 0h-62l-127 203l-129 -203h-62l163 246l-156 236h62l122 -194l120 194h62l-156 -236z" />
    <glyph glyph-name="y" unicode="y" horiz-adv-x="430" 
d="M416 482l-224 -613q-14 -38 -33 -56q-34 -31 -91 -31h-24v45h19q38 0 56 13.5t32 52.5l39 107l-176 482h56l145 -422l145 422h56z" />
    <glyph glyph-name="z" unicode="z" horiz-adv-x="452" 
d="M398 0h-344v48l290 389h-274v45h328v-48l-291 -389h291v-45z" />
    <glyph glyph-name="braceleft" unicode="{" horiz-adv-x="316" 
d="M266 -74h-14q-70 0 -97 27q-26 25 -26 95v207q0 37 -16.5 58t-44.5 21h-18v44h18q28 0 44.5 21t16.5 58v207q0 70 26 95q27 27 97 27h14v-45h-13q-47 0 -60 -14t-13 -64v-207q0 -38 -13 -59.5t-48 -40.5q35 -19 48 -40.5t13 -59.5v-207q0 -50 13 -64t60 -14h13v-45z" />
    <glyph glyph-name="bar" unicode="|" horiz-adv-x="317" 
d="M184 -74h-51v860h51v-860z" />
    <glyph glyph-name="braceright" unicode="}" horiz-adv-x="316" 
d="M266 334h-18q-28 0 -44.5 -21t-16.5 -58v-207q0 -71 -26 -96.5t-97 -25.5h-14v45h13q47 0 60 14t13 64v207q0 38 13 59.5t48 40.5q-35 19 -48 40.5t-13 59.5v207q0 50 -13 64t-60 14h-13v45h14q71 0 97 -25.5t26 -96.5v-207q0 -37 16.5 -58t44.5 -21h18v-44z" />
    <glyph glyph-name="asciitilde" unicode="~" 
d="M461 277q-44 -43 -70 -54q-18 -8 -43 -8q-41 0 -92 25q-58 29 -91 29q-22 0 -37 -8.5t-44 -36.5l-31 31q44 43 70 54q18 8 43 8q26 0 110 -33q52 -21 73 -21q22 0 37 8.5t44 36.5z" />
    <glyph glyph-name="nbspace" unicode="&#xa0;" horiz-adv-x="255" 
 />
    <glyph glyph-name="sterling" unicode="&#xa3;" 
d="M465 0h-368v342h-64v38h64v122q0 98 58 157t155 59q87 0 155 -61l-37 -37q-29 28 -55 39t-64 11q-76 0 -117 -46.5t-41 -132.5v-111h158v-38h-158v-294h314v-48z" />
    <glyph glyph-name="currency" unicode="&#xa4;" 
d="M465 54q-63 -61 -155 -61q-97 0 -155 59t-58 157v85h-63v38h63v62h-63v38h63v70q0 98 58 157t155 59q88 0 147 -54l-29 -44q-29 28 -55 39t-64 11q-76 0 -117 -46.5t-41 -132.5v-59h200l-10 -38h-190v-62h170l-10 -38h-160v-74q0 -86 41 -132.5t117 -46.5q38 0 64 11
t55 39z" />
    <glyph glyph-name="brokenbar" unicode="&#xa6;" horiz-adv-x="328" 
d="M184 436h-51v350h51v-350zM184 -74h-51v350h51v-350z" />
    <glyph glyph-name="section" unicode="&#xa7;" horiz-adv-x="566" 
d="M469 247q0 -73 -49 -127q-20 -21 -61 -43q37 -15 56 -33q47 -44 47 -113q0 -73 -50.5 -120t-129.5 -47q-84 0 -134 48q-21 20 -33 45q-11 22 -16 62h54q15 -107 129 -107q59 0 92.5 31t33.5 85q0 41 -25 72t-69 43l-83 23q-61 17 -97.5 66t-36.5 114q0 74 49 128
q20 21 61 43q-41 20 -61 40q-38 38 -38 100q0 71 48.5 116t127.5 45q81 0 131 -48q20 -18 32 -44q10 -22 14 -59h-53q-8 56 -37 80t-89 24q-57 0 -89 -29.5t-32 -81.5q0 -84 91 -109l83 -23q62 -17 98 -66t36 -115zM415 247q0 65 -36 103.5t-96 38.5q-59 0 -95.5 -38.5
t-36.5 -100.5q0 -66 36 -105.5t96 -39.5q59 0 95.5 39t36.5 103z" />
    <glyph glyph-name="copyright" unicode="&#xa9;" horiz-adv-x="894" 
d="M809 363q0 -155 -105 -262t-257 -107q-150 0 -256 106t-106 256t106 256t256 106q147 0 254.5 -105.5t107.5 -249.5zM761 350q0 134 -92 229t-222 95q-128 0 -221 -94t-93 -224t93 -224t221 -94q126 0 220 93.5t94 218.5zM582 202q-37 -31 -63 -41q-27 -11 -67 -11
q-83 0 -130.5 55t-47.5 151t47.5 151.5t130.5 55.5q34 0 64 -10q28 -10 66 -43l-30 -30q-29 25 -49.5 33.5t-50.5 8.5q-133 0 -133 -171q0 -78 34.5 -119t99.5 -41q30 0 50 8.5t49 32.5z" />
    <glyph glyph-name="guillemotleft" unicode="&#xab;" horiz-adv-x="527" 
d="M445 69l-196 196l196 196v-66l-130 -130l130 -130v-66zM238 69l-196 196l196 196v-66l-130 -130l130 -130v-66z" />
    <glyph glyph-name="logicalnot" unicode="&#xac;" 
d="M461 107h-47v133h-361v47h408v-180z" />
    <glyph glyph-name="registered" unicode="&#xae;" horiz-adv-x="438" 
d="M407 534q0 -80 -54.5 -135.5t-133.5 -55.5q-78 0 -133 55t-55 133t55 133t133 55q76 0 132 -55t56 -130zM383 528q0 70 -48 119.5t-116 49.5q-67 0 -115.5 -49t-48.5 -117t48.5 -117t115.5 -49q66 0 115 48.5t49 114.5zM296 427h-27l-51 87h-35v-87h-23v208h67
q26 0 45 -18t19 -44q0 -21 -13 -36t-34 -21zM268 574q0 17 -12.5 28.5t-31.5 11.5h-41v-80h41q19 0 31.5 11.5t12.5 28.5z" />
    <glyph glyph-name="degree" unicode="&#xb0;" horiz-adv-x="458" 
d="M386 565q0 -67 -45.5 -113.5t-111.5 -46.5q-65 0 -111 46t-46 111t46 111t111 46q64 0 110.5 -45.5t46.5 -108.5zM341 560q0 50 -32 83.5t-81 33.5q-48 0 -79.5 -32.5t-31.5 -82.5q0 -49 32 -82t80 -33q47 0 79.5 32.5t32.5 80.5z" />
    <glyph glyph-name="plusminus" unicode="&#xb1;" 
d="M461 270h-180v-182h-47v182h-181v47h181v181h47v-181h180v-47zM461 0h-408v47h408v-47z" />
    <glyph glyph-name="paragraph" unicode="&#xb6;" horiz-adv-x="579" 
d="M469 -230h-51v894h-123v-894h-51v562q-52 3 -82 15q-54 22 -85.5 69.5t-31.5 105.5q0 83 59.5 136.5t151.5 53.5h213v-942z" />
    <glyph glyph-name="guillemotright" unicode="&#xbb;" horiz-adv-x="527" 
d="M485 265l-196 -196v66l130 130l-130 130v66zM278 265l-196 -196v66l130 130l-130 130v66z" />
    <glyph glyph-name="divide" unicode="&#xf7;" 
d="M303 434q0 -19 -13.5 -33t-32.5 -14t-32.5 13.5t-13.5 32.5t13.5 32.5t32.5 13.5t32.5 -13.5t13.5 -31.5zM461 240h-408v47h408v-47zM303 95q0 -19 -13.5 -33t-32.5 -14t-32.5 13.5t-13.5 32.5t13.5 32.5t32.5 13.5t32.5 -13.5t13.5 -31.5z" />
    <glyph glyph-name="florin" unicode="&#x192;" horiz-adv-x="394" 
d="M364 667h-43q-74 0 -88 -80l-36 -207h109v-38h-116l-101 -572h-51l101 572h-109v38h116l36 206q11 59 47.5 92.5t90.5 33.5h44v-45z" />
    <glyph glyph-name="Delta" unicode="&#x394;" horiz-adv-x="591" 
d="M581 0h-571l262 712h47zM511 48l-216 592l-215 -592h431z" />
    <glyph glyph-name="mu" unicode="&#x3bc;" horiz-adv-x="556" 
d="M459 0h-51v57q-31 -32 -61 -46q-34 -17 -82 -17q-41 0 -77 14q-23 8 -49 31v-269h-51v712h51v-299q0 -70 34.5 -107t98.5 -37t100 38t36 106v299h51v-482z" />
    <glyph glyph-name="afii10023" unicode="&#x401;" horiz-adv-x="598" 
d="M455 829q0 -16 -11 -27.5t-26 -11.5q-16 0 -27 11t-11 26q0 16 11 27t26 11t26.5 -11t11.5 -25zM248 829q0 -16 -11 -27.5t-26 -11.5q-16 0 -27 11t-11 26q0 16 11 27t26 11t26.5 -11t11.5 -25zM542 0h-432v712h432v-48h-378v-281h322v-48h-322v-287h378v-48z" />
    <glyph glyph-name="afii10051" unicode="&#x402;" horiz-adv-x="743" 
d="M646 -9q0 -98 -58 -157t-155 -59q-47 0 -89 17q-30 12 -66 44l37 37q28 -28 54 -39t64 -11q77 0 118 46.5t41 132.5v227q0 75 -41.5 106.5t-96.5 31.5h-193v-367h-54v664h-182v48h479v-48h-243v-249h193q83 0 137.5 -44t54.5 -135v-245z" />
    <glyph glyph-name="afii10052" unicode="&#x403;" horiz-adv-x="564" 
d="M443 927l-106 -147h-58l97 147h67zM540 664h-368v-664h-54v712h422v-48z" />
    <glyph glyph-name="afii10053" unicode="&#x404;" horiz-adv-x="596" 
d="M528 83q-51 -46 -95 -67.5t-104 -21.5q-104 0 -180 73q-43 41 -54.5 99t-11.5 190q0 140 9 182q13 63 57 107q73 73 179 73q59 0 105 -22.5t95 -66.5l-36 -36q-42 40 -77.5 58.5t-85.5 18.5q-65 0 -119 -40t-64 -103q-8 -54 -9 -144h295v-48h-295v-26.5v-29t0.5 -27
t2 -29.5t4 -27t7 -28.5l10 -24.5t13.5 -25t18 -21q55 -55 137 -55q50 0 85.5 18.5t77.5 58.5z" />
    <glyph glyph-name="afii10054" unicode="&#x405;" horiz-adv-x="587" 
d="M528 190q0 -92 -66 -144t-182 -52q-71 0 -128 23q-49 21 -101 71l38 38q53 -50 93 -66q45 -18 104 -18q89 0 138.5 39t49.5 109q0 64 -39 99q-29 27 -103 38l-83 13q-183 29 -183 183q0 91 60 143t166 52q61 0 105 -17q41 -15 95 -60l-35 -35q-43 37 -79 51
q-39 15 -91 15q-79 0 -123.5 -39t-44.5 -108q0 -62 37 -93q43 -35 106 -44l77 -12q86 -13 127 -47q62 -51 62 -139z" />
    <glyph glyph-name="afii10055" unicode="&#x406;" horiz-adv-x="274" 
d="M164 0h-54v712h54v-712z" />
    <glyph glyph-name="afii10056" unicode="&#x407;" horiz-adv-x="274" 
d="M279 829q0 -16 -11 -27.5t-26 -11.5q-16 0 -27 11t-11 26q0 16 11 27t26 11t26.5 -11t11.5 -25zM72 829q0 -16 -11 -27.5t-26 -11.5q-16 0 -27 11t-11 26q0 16 11 27t26 11t26.5 -11t11.5 -25zM164 0h-54v712h54v-712z" />
    <glyph glyph-name="afii10057" unicode="&#x408;" horiz-adv-x="498" 
d="M398 210q0 -98 -58 -157t-155 -59q-47 0 -89 17q-30 12 -66 44l37 37q28 -28 54 -39t64 -11q77 0 118 46.5t41 132.5v491h54v-502z" />
    <glyph glyph-name="afii10058" unicode="&#x409;" horiz-adv-x="1056" 
d="M1013 205q0 -93 -58.5 -149t-156.5 -56h-263v664h-277l-11 -327q-6 -185 -53.5 -261t-148.5 -76h-39v48h28q52 0 82.5 21.5t52 92.5t25.5 203l11 347h384v-302h209q98 0 156.5 -56t58.5 -149zM959 205q0 75 -43.5 116t-123.5 41h-203v-314h203q80 0 123.5 41t43.5 116z
" />
    <glyph glyph-name="afii10059" unicode="&#x40a;" horiz-adv-x="1056" 
d="M1013 205q0 -93 -58.5 -149t-156.5 -56h-263v362h-371v-362h-54v712h54v-302h371v302h54v-302h209q98 0 156.5 -56t58.5 -149zM959 205q0 75 -43.5 116t-123.5 41h-203v-314h203q80 0 123.5 41t43.5 116z" />
    <glyph glyph-name="afii10060" unicode="&#x40b;" horiz-adv-x="743" 
d="M646 0h-54v244q0 75 -41.5 106.5t-96.5 31.5q-76 0 -193 -27v-355h-54v664h-182v48h479v-48h-243v-261q123 27 193 27q83 0 137.5 -44t54.5 -135v-251z" />
    <glyph glyph-name="afii10061" unicode="&#x40c;" horiz-adv-x="645" 
d="M443 927l-106 -147h-58l97 147h67zM627 0h-64l-229 399l-170 -206v-193h-54v712h54v-445l361 445h65l-220 -272z" />
    <glyph glyph-name="afii10062" unicode="&#x40e;" horiz-adv-x="534" 
d="M426 885q-28 -125 -159 -125t-159 125h47q21 -80 113 -80q90 0 111 80h47zM522 712l-259 -604q-46 -108 -134 -108h-54v48h42q39 0 61 18.5t40 61.5l31 74l-237 510h58l207 -449l187 449h58z" />
    <glyph glyph-name="afii10145" unicode="&#x40f;" horiz-adv-x="699" 
d="M589 0h-212v-190h-54v190h-213v712h54v-664h371v664h54v-712z" />
    <glyph glyph-name="afii10017" unicode="&#x410;" horiz-adv-x="600" 
d="M586 0h-58l-62 173h-332l-62 -173h-58l262 712h48zM449 221l-149 419l-149 -419h298z" />
    <glyph glyph-name="afii10018" unicode="&#x411;" horiz-adv-x="657" 
d="M588 205q0 -93 -58.5 -149t-156.5 -56h-263v712h434v-48h-380v-254h209q98 0 156.5 -56t58.5 -149zM534 205q0 75 -43.5 116t-123.5 41h-203v-314h203q80 0 123.5 41t43.5 116z" />
    <glyph glyph-name="afii10019" unicode="&#x412;" horiz-adv-x="671" 
d="M589 192q0 -90 -55.5 -141t-153.5 -51h-270v712h262q92 0 149 -51t57 -133q0 -78 -54 -129q-21 -19 -57 -33q42 -17 66 -38q56 -51 56 -136zM524 526q0 65 -42 101.5t-116 36.5h-202v-276h202q75 0 116.5 36.5t41.5 101.5zM535 194q0 67 -43.5 106.5t-117.5 39.5h-210
v-292h210q74 0 117.5 39.5t43.5 106.5z" />
    <glyph glyph-name="afii10020" unicode="&#x413;" horiz-adv-x="564" 
d="M540 664h-368v-664h-54v712h422v-48z" />
    <glyph glyph-name="afii10021" unicode="&#x414;" horiz-adv-x="699" 
d="M653 -190h-54v190h-511v-190h-54v238h70q53 124 72 239t19 335v90h373v-664h85v-238zM514 48v616h-265v-100q0 -202 -17 -293.5t-69 -222.5h351z" />
    <glyph glyph-name="afii10022" unicode="&#x415;" horiz-adv-x="598" 
d="M542 0h-432v712h432v-48h-378v-281h322v-48h-322v-287h378v-48z" />
    <glyph glyph-name="afii10024" unicode="&#x416;" horiz-adv-x="922" 
d="M910 0h-64l-222 383l-136 -180v-203h-54v203l-136 180l-222 -383h-64l252 428l-216 284h65l321 -435v435h54v-435l321 435h65l-216 -284z" />
    <glyph glyph-name="afii10025" unicode="&#x417;" horiz-adv-x="587" 
d="M505 192q0 -90 -66 -144t-166 -54q-75 0 -124.5 20.5t-101.5 73.5l38 38q50 -47 90 -65.5t104 -18.5q75 0 123.5 41t48.5 111q0 146 -158 146h-79v48h82q68 0 105.5 37t37.5 106q0 66 -43 102.5t-116 36.5q-100 0 -176 -66l-32 35q50 42 97.5 60.5t110.5 18.5
q94 0 153.5 -51t59.5 -135q0 -120 -107 -165q119 -41 119 -175z" />
    <glyph glyph-name="afii10026" unicode="&#x418;" horiz-adv-x="720" 
d="M610 0h-54v619l-392 -619h-54v712h54v-617l392 617h54v-712z" />
    <glyph glyph-name="afii10027" unicode="&#x419;" horiz-adv-x="720" 
d="M519 885q-28 -125 -159 -125t-159 125h47q21 -80 113 -80q90 0 111 80h47zM610 0h-54v619l-392 -619h-54v712h54v-617l392 617h54v-712z" />
    <glyph glyph-name="afii10028" unicode="&#x41a;" horiz-adv-x="645" 
d="M627 0h-64l-229 399l-170 -206v-193h-54v712h54v-445l361 445h65l-220 -272z" />
    <glyph glyph-name="afii10029" unicode="&#x41b;" horiz-adv-x="699" 
d="M589 0h-54v664h-277l-11 -327q-6 -185 -53.5 -261t-148.5 -76h-39v48h28q52 0 82.5 21.5t52 92.5t25.5 203l11 347h384v-712z" />
    <glyph glyph-name="afii10030" unicode="&#x41c;" horiz-adv-x="818" 
d="M708 0h-54v587l-216 -487h-54l-220 487v-587h-54v712h54l248 -549l242 549h54v-712z" />
    <glyph glyph-name="afii10031" unicode="&#x41d;" horiz-adv-x="699" 
d="M589 0h-54v335h-371v-335h-54v712h54v-329h371v329h54v-712z" />
    <glyph glyph-name="afii10032" unicode="&#x41e;" horiz-adv-x="652" 
d="M570 356q0 -135 -11.5 -190.5t-54.5 -98.5q-73 -73 -178 -73t-178 73q-44 44 -55 101t-11 188v24q0 75 2 110t17 79t47 76q73 73 178 73t178 -73q12 -12 21.5 -25t16.5 -29.5l12 -28.5t8 -32.5t5 -32t2.5 -35.5t0.5 -33.5v-37v-35.5zM516 346v27q0 114 -10.5 161
t-44.5 81q-55 55 -135 55t-135 -55q-35 -35 -45 -88t-10 -171v-31q0 -103 11 -149t44 -79q55 -55 135 -55t135 55q27 27 39.5 68t14 73.5t1.5 107.5z" />
    <glyph glyph-name="afii10033" unicode="&#x41f;" horiz-adv-x="699" 
d="M589 0h-54v664h-371v-664h-54v712h479v-712z" />
    <glyph glyph-name="afii10034" unicode="&#x420;" horiz-adv-x="631" 
d="M586 507q0 -93 -58.5 -149t-156.5 -56h-207v-302h-54v712h261q98 0 156.5 -56t58.5 -149zM532 507q0 75 -43.5 116t-123.5 41h-201v-314h201q80 0 123.5 41t43.5 116z" />
    <glyph glyph-name="afii10035" unicode="&#x421;" horiz-adv-x="596" 
d="M527 83q-51 -46 -95 -67.5t-104 -21.5q-104 0 -180 73q-43 41 -54.5 99t-11.5 190q0 140 9 182q13 63 57 107q73 73 179 73q59 0 105 -22.5t95 -66.5l-36 -36q-42 40 -77.5 58.5t-85.5 18.5q-65 0 -119 -40t-64 -103q-9 -52 -9 -171v-30q0 -104 11 -150t44 -79
q55 -55 137 -55q50 0 85.5 18.5t77.5 58.5z" />
    <glyph glyph-name="afii10036" unicode="&#x422;" horiz-adv-x="539" 
d="M509 664h-213v-664h-54v664h-212v48h479v-48z" />
    <glyph glyph-name="afii10037" unicode="&#x423;" horiz-adv-x="534" 
d="M522 712l-259 -604q-46 -108 -134 -108h-54v48h42q39 0 60.5 18t40.5 62l31 74l-237 510h58l207 -449l187 449h58z" />
    <glyph glyph-name="afii10038" unicode="&#x424;" horiz-adv-x="722" 
d="M664 371q0 -132 -74 -207.5t-202 -75.5v-91h-54v91q-128 0 -202 75.5t-74 207.5t74.5 207.5t201.5 75.5v61h54v-61q127 0 201.5 -75.5t74.5 -207.5zM610 370q0 107 -56.5 171.5t-165.5 64.5v-470q106 0 164 64t58 170zM334 136v470q-109 0 -165.5 -64.5t-56.5 -171.5
q0 -106 58 -170t164 -64z" />
    <glyph glyph-name="afii10039" unicode="&#x425;" horiz-adv-x="532" 
d="M514 0h-63l-186 317l-186 -317h-61l218 365l-204 347h63l170 -299l171 299h62l-204 -347z" />
    <glyph glyph-name="afii10040" unicode="&#x426;" horiz-adv-x="720" 
d="M674 -190h-54v190h-510v712h54v-664h371v664h54v-664h85v-238z" />
    <glyph glyph-name="afii10041" unicode="&#x427;" horiz-adv-x="644" 
d="M534 0h-54v337q-22 -27 -74 -50t-102 -23q-107 0 -165.5 56.5t-58.5 160.5v231h54v-224q0 -176 170 -176q64 0 110 27.5t66 78.5v294h54v-712z" />
    <glyph glyph-name="afii10042" unicode="&#x428;" horiz-adv-x="1000" 
d="M890 0h-780v712h54v-664h309v664h54v-664h309v664h54v-712z" />
    <glyph glyph-name="afii10043" unicode="&#x429;" horiz-adv-x="1021" 
d="M975 -190h-54v190h-811v712h54v-664h309v664h54v-664h309v664h54v-664h85v-238z" />
    <glyph glyph-name="afii10044" unicode="&#x42a;" horiz-adv-x="758" 
d="M715 205q0 -93 -58.5 -149t-156.5 -56h-263v664h-207v48h261v-302h209q98 0 156.5 -56t58.5 -149zM661 205q0 75 -43.5 116t-123.5 41h-203v-314h203q80 0 123.5 41t43.5 116z" />
    <glyph glyph-name="afii10045" unicode="&#x42b;" horiz-adv-x="854" 
d="M744 0h-54v712h54v-712zM588 205q0 -93 -58.5 -149t-156.5 -56h-263v712h54v-302h209q98 0 156.5 -56t58.5 -149zM534 205q0 75 -43.5 116t-123.5 41h-203v-314h203q80 0 123.5 41t43.5 116z" />
    <glyph glyph-name="afii10046" unicode="&#x42c;" horiz-adv-x="631" 
d="M588 205q0 -93 -58.5 -149t-156.5 -56h-263v712h54v-302h209q98 0 156.5 -56t58.5 -149zM534 205q0 75 -43.5 116t-123.5 41h-203v-314h203q80 0 123.5 41t43.5 116z" />
    <glyph glyph-name="afii10047" unicode="&#x42d;" horiz-adv-x="596" 
d="M513 356q0 -132 -11.5 -190t-54.5 -99q-76 -73 -180 -73q-60 0 -104 21.5t-95 67.5l36 36q42 -40 77.5 -58.5t85.5 -18.5q82 0 137 55q10 10 18 21t13.5 25l10 24.5t7 28.5t4 27t2 29.5t0.5 27v29v26.5h-295v48h295q-1 90 -9 144q-10 63 -64 103t-119 40
q-50 0 -85.5 -18.5t-77.5 -58.5l-36 36q49 44 95 66.5t105 22.5q106 0 179 -73q24 -24 38 -49.5t20 -63.5t7 -65.5t1 -88.5v-22z" />
    <glyph glyph-name="afii10048" unicode="&#x42e;" horiz-adv-x="900" 
d="M818 356q0 -135 -11.5 -190.5t-54.5 -98.5q-73 -73 -178 -73t-178 73q-42 42 -54 97t-12 171h-166v-335h-54v712h54v-329h166q0 56 1 83t7 64.5t20 64t38 50.5q73 73 178 73t178 -73q12 -12 21.5 -25t16.5 -29.5l12 -28.5t8 -32.5t5 -32t2.5 -35.5t0.5 -33.5v-37v-35.5z
M764 346v27q0 114 -10.5 161t-44.5 81q-55 55 -135 55t-135 -55q-35 -35 -45 -88t-10 -171v-31q0 -103 11 -149t44 -79q55 -55 135 -55t135 55q27 27 39.5 68t14 73.5t1.5 107.5z" />
    <glyph glyph-name="afii10049" unicode="&#x42f;" horiz-adv-x="657" 
d="M547 0h-54v302h-200l-166 -302h-63l170 307q-75 14 -119 67.5t-44 132.5q0 93 58.5 149t156.5 56h261v-712zM493 350v314h-201q-80 0 -123.5 -41t-43.5 -116t43.5 -116t123.5 -41h201z" />
    <glyph glyph-name="afii10065" unicode="&#x430;" horiz-adv-x="524" 
d="M431 0h-51v48q-33 -30 -57 -40q-34 -14 -92 -14q-175 0 -175 139q0 65 44.5 101.5t123.5 36.5h156v54q0 61 -33.5 89.5t-106.5 28.5q-50 0 -82 -16q-24 -13 -47 -45l-37 32q30 37 60 53q42 21 108 21q189 0 189 -158v-330zM380 168v62h-150q-123 0 -123 -97
q0 -49 31.5 -71.5t99.5 -22.5q76 0 109 30.5t33 98.5z" />
    <glyph glyph-name="afii10066" unicode="&#x431;" horiz-adv-x="526" 
d="M457 241q0 -136 -59 -195q-50 -52 -132 -52q-71 0 -118.5 39.5t-62.5 108.5q-10 44 -10 215q0 117 12 181t54 106q26 26 66.5 41.5t71 19.5t79 7t64.5 5v-49q-8 -1 -73 -5t-107 -15t-67 -36q-17 -17 -28.5 -39t-16.5 -50t-7.5 -45t-3.5 -46.5t-1 -31.5h3q18 37 62 59.5
t86 22.5q91 0 139.5 -62t48.5 -179zM406 236q0 66 -9 101.5t-33 59.5q-38 40 -98 40q-58 0 -98 -40q-42 -43 -42 -159q0 -64 9.5 -99.5t32.5 -59.5q40 -40 98 -40q60 0 98 40q23 23 32.5 58.5t9.5 98.5z" />
    <glyph glyph-name="afii10067" unicode="&#x432;" horiz-adv-x="535" 
d="M463 131q0 -61 -37.5 -96t-104.5 -35h-224v482h219q62 0 100.5 -34t38.5 -90q0 -82 -82 -108q41 -13 65.5 -44t24.5 -75zM404 355q0 40 -26 62t-73 22h-157v-168h157q48 0 73.5 22t25.5 62zM412 135q0 42 -27 67.5t-75 25.5h-162v-185h162q48 0 75 25t27 67z" />
    <glyph glyph-name="afii10068" unicode="&#x433;" horiz-adv-x="411" 
d="M401 439h-249v-439h-51v482h300v-43z" />
    <glyph glyph-name="afii10069" unicode="&#x434;" horiz-adv-x="559" 
d="M523 -160h-51v160h-393v-160h-51v203h64q35 72 52 140.5t17 188.5v110h287v-439h75v-203zM397 43v396h-185v-100q0 -98 -15 -164t-45 -132h245z" />
    <glyph glyph-name="afii10070" unicode="&#x435;" horiz-adv-x="523" 
d="M455 230h-335q3 -68 17 -102q36 -88 141 -88q38 0 68 12q26 11 64 46l38 -30q-44 -43 -81 -58q-38 -16 -91 -16q-207 0 -207 250q0 114 51.5 179t141.5 65t141.5 -62.5t51.5 -172.5v-23zM404 271q-3 49 -9 69q-14 49 -49.5 76t-83.5 27q-42 0 -75 -21.5t-50 -59.5
q-14 -33 -17 -91h284z" />
    <glyph glyph-name="afii10072" unicode="&#x436;" horiz-adv-x="713" 
d="M689 0h-64l-150 244l-93 -116v-128h-51v128l-93 116l-150 -244h-64l181 284l-158 198h65l219 -282v282h51v-282l219 282h65l-158 -198z" />
    <glyph glyph-name="afii10073" unicode="&#x437;" horiz-adv-x="477" 
d="M405 133q0 -62 -53 -100t-129 -38q-59 0 -101.5 15.5t-84.5 53.5l35 35q34 -33 66.5 -46t81.5 -13q52 0 94 26t42 68q0 44 -30.5 68t-80.5 24h-69v43h71q45 0 72.5 23t27.5 65q0 41 -32 64t-87 23q-77 0 -139 -43l-30 36q73 51 169 51q74 0 121.5 -34.5t47.5 -95.5
q0 -38 -21 -67.5t-60 -41.5q41 -11 65 -42.5t24 -73.5z" />
    <glyph glyph-name="afii10074" unicode="&#x438;" horiz-adv-x="573" 
d="M476 0h-51v404l-277 -404h-51v482h51v-404l277 404h51v-482z" />
    <glyph glyph-name="afii10075" unicode="&#x439;" horiz-adv-x="573" 
d="M445 702q-28 -125 -159 -125t-159 125h47q21 -80 113 -80q90 0 111 80h47zM476 0h-51v404l-277 -404h-51v482h51v-404l277 404h51v-482z" />
    <glyph glyph-name="afii10076" unicode="&#x43a;" horiz-adv-x="524" 
d="M492 0h-64l-172 248l-106 -120v-128h-51v482h51v-282l249 282h65l-174 -196z" />
    <glyph glyph-name="afii10077" unicode="&#x43b;" horiz-adv-x="559" 
d="M462 0h-51v439h-195l-7 -237q-5 -202 -151 -202h-32v43h25q20 0 35.5 5.5t33 22.5t28 55t11.5 95l7 261h296v-482z" />
    <glyph glyph-name="afii10078" unicode="&#x43c;" horiz-adv-x="648" 
d="M551 0h-51v378l-151 -310h-48l-153 310v-378h-51v482h51l178 -363l174 363h51v-482z" />
    <glyph glyph-name="afii10079" unicode="&#x43d;" horiz-adv-x="559" 
d="M462 0h-51v228h-263v-228h-51v482h51v-211h263v211h51v-482z" />
    <glyph glyph-name="afii10080" unicode="&#x43e;" horiz-adv-x="526" 
d="M457 244q0 -136 -60 -197q-53 -53 -134 -53t-134 53q-60 60 -60 194t60 194q53 53 134 53q93 0 143.5 -63.5t50.5 -180.5zM406 239q0 66 -9.5 102t-33.5 61q-39 41 -100 41t-100 -41q-43 -44 -43 -161q0 -64 9.5 -100t33.5 -61q39 -41 100 -41t100 41q43 44 43 159z" />
    <glyph glyph-name="afii10081" unicode="&#x43f;" horiz-adv-x="559" 
d="M462 0h-51v439h-263v-439h-51v482h365v-482z" />
    <glyph glyph-name="afii10082" unicode="&#x440;" horiz-adv-x="540" 
d="M471 240q0 -246 -183 -246q-52 0 -82 15.5t-58 52.5v-292h-51v712h51v-62q30 38 59 53t80 15q184 0 184 -248zM420 240q0 106 -32.5 154.5t-103.5 48.5t-103.5 -48.5t-32.5 -153.5t32.5 -153.5t103.5 -48.5t103.5 48.5t32.5 152.5z" />
    <glyph glyph-name="afii10083" unicode="&#x441;" horiz-adv-x="493" 
d="M440 68q-38 -41 -71 -57.5t-85 -16.5q-101 0 -158 66t-57 181t57 181t158 66q51 0 84 -16.5t72 -57.5l-35 -32q-29 32 -56 46.5t-66 14.5q-86 0 -130 -64q-33 -47 -33 -139t33 -137q45 -64 129 -64q40 0 66.5 14.5t56.5 46.5z" />
    <glyph glyph-name="afii10084" unicode="&#x442;" horiz-adv-x="409" 
d="M399 439h-164v-439h-51v439h-174v43h389v-43z" />
    <glyph glyph-name="afii10085" unicode="&#x443;" horiz-adv-x="430" 
d="M416 482l-224 -613q-14 -38 -33 -56q-34 -31 -91 -31h-24v45h19q38 0 56 13.5t32 52.5l39 107l-176 482h56l145 -422l145 422h56z" />
    <glyph glyph-name="afii10086" unicode="&#x444;" horiz-adv-x="667" 
d="M607 241q0 -117 -66.5 -182t-181.5 -65v-224h-51v224q-115 0 -181.5 65t-66.5 182t65 182t183 65v224h51v-224q118 0 183 -65t65 -182zM556 240q0 91 -46.5 147t-150.5 56v-404q98 0 147.5 54.5t49.5 146.5zM308 39v404q-104 0 -150.5 -56t-46.5 -147q0 -92 49.5 -146.5
t147.5 -54.5z" />
    <glyph glyph-name="afii10087" unicode="&#x445;" horiz-adv-x="460" 
d="M420 0h-62l-127 203l-129 -203h-62l163 246l-156 236h62l122 -194l120 194h62l-156 -236z" />
    <glyph glyph-name="afii10088" unicode="&#x446;" horiz-adv-x="573" 
d="M537 -160h-51v160h-389v482h51v-439h263v439h51v-439h75v-203z" />
    <glyph glyph-name="afii10089" unicode="&#x447;" horiz-adv-x="530" 
d="M433 0h-51v224q-56 -56 -135 -56q-78 0 -123 44t-45 126v144h51v-135q0 -134 124 -134q103 0 128 87v182h51v-482z" />
    <glyph glyph-name="afii10090" unicode="&#x448;" horiz-adv-x="793" 
d="M696 0h-599v482h51v-439h223v439h51v-439h223v439h51v-482z" />
    <glyph glyph-name="afii10091" unicode="&#x449;" horiz-adv-x="807" 
d="M771 -160h-51v160h-623v482h51v-439h223v439h51v-439h223v439h51v-439h75v-203z" />
    <glyph glyph-name="afii10092" unicode="&#x44a;" horiz-adv-x="583" 
d="M543 142q0 -64 -40.5 -103t-108.5 -39h-212v439h-172v43h223v-198h161q68 0 108.5 -39t40.5 -103zM492 142q0 48 -27.5 73.5t-78.5 25.5h-153v-198h153q52 0 79 25.5t27 73.5z" />
    <glyph glyph-name="afii10093" unicode="&#x44b;" horiz-adv-x="702" 
d="M592 0h-51v482h51v-482zM458 142q0 -64 -40.5 -103t-108.5 -39h-212v482h51v-198h161q68 0 108.5 -39t40.5 -103zM407 142q0 48 -27.5 73.5t-78.5 25.5h-153v-198h153q52 0 79 25.5t27 73.5z" />
    <glyph glyph-name="afii10094" unicode="&#x44c;" horiz-adv-x="498" 
d="M458 142q0 -64 -40.5 -103t-108.5 -39h-212v482h51v-198h161q68 0 108.5 -39t40.5 -103zM407 142q0 48 -27.5 73.5t-78.5 25.5h-153v-198h153q52 0 79 25.5t27 73.5z" />
    <glyph glyph-name="afii10095" unicode="&#x44d;" horiz-adv-x="493" 
d="M424 241q0 -115 -57 -181t-158 -66q-52 0 -85 16.5t-71 57.5l35 32q30 -32 56.5 -46.5t66.5 -14.5q83 0 122.5 53.5t39.5 137.5h-229v41h228q-4 77 -45 124.5t-117 47.5q-39 0 -66 -14.5t-56 -46.5l-35 32q39 41 72 57.5t84 16.5q101 0 158 -66t57 -181z" />
    <glyph glyph-name="afii10096" unicode="&#x44e;" horiz-adv-x="712" 
d="M643 244q0 -136 -60 -197q-53 -53 -134 -53t-134 53q-57 57 -60 179h-107v-226h-51v482h51v-213h108q4 111 59 166q53 53 134 53q93 0 143.5 -63.5t50.5 -180.5zM592 239q0 66 -9.5 102t-33.5 61q-39 41 -100 41t-100 -41q-43 -44 -43 -161q0 -64 9.5 -100t33.5 -61
q39 -41 100 -41t100 41q43 44 43 159z" />
    <glyph glyph-name="afii10097" unicode="&#x44f;" horiz-adv-x="519" 
d="M422 0h-51v196h-135l-114 -196h-62l120 198q-56 8 -88.5 46.5t-32.5 95.5q0 64 40.5 103t108.5 39h214v-482zM371 239v200h-153q-52 0 -79.5 -26t-27.5 -74t27.5 -74t79.5 -26h153z" />
    <glyph glyph-name="afii10071" unicode="&#x451;" horiz-adv-x="523" 
d="M405 639q0 -16 -11 -27.5t-26 -11.5q-16 0 -27 11t-11 26q0 16 11 27t26 11t26.5 -11t11.5 -25zM198 639q0 -16 -11 -27.5t-26 -11.5q-16 0 -27 11t-11 26q0 16 11 27t26 11t26.5 -11t11.5 -25zM455 230h-335q3 -68 17 -102q36 -88 141 -88q38 0 68 12q26 11 64 46
l38 -30q-44 -43 -81 -58q-38 -16 -91 -16q-207 0 -207 250q0 114 51.5 179t141.5 65t141.5 -62.5t51.5 -172.5v-23zM404 271q-3 49 -9 69q-14 49 -49.5 76t-83.5 27q-42 0 -75 -21.5t-50 -59.5q-14 -33 -17 -91h284z" />
    <glyph glyph-name="afii10099" unicode="&#x452;" horiz-adv-x="559" 
d="M468 -85q0 -63 -35 -104t-101 -41h-44v45h35q43 0 68.5 28.5t25.5 72.5v263q0 144 -128 144q-65 0 -103 -38t-38 -106v-179h-51v444h-61v38h61v230h51v-230h254v-38h-254v-139q60 63 148 63q81 0 126.5 -48t45.5 -132v-273z" />
    <glyph glyph-name="afii10100" unicode="&#x453;" horiz-adv-x="411" 
d="M337 737l-106 -147h-58l97 147h67zM401 439h-249v-439h-51v482h300v-43z" />
    <glyph glyph-name="afii10101" unicode="&#x454;" horiz-adv-x="493" 
d="M440 68q-38 -41 -71 -57.5t-85 -16.5q-101 0 -158 66t-57 181t57 181t158 66q51 0 84 -16.5t72 -57.5l-35 -32q-29 32 -56 46.5t-66 14.5q-76 0 -117 -47.5t-45 -124.5h228v-41h-229q0 -84 39.5 -137.5t122.5 -53.5q40 0 66.5 14.5t56.5 46.5z" />
    <glyph glyph-name="afii10102" unicode="&#x455;" horiz-adv-x="494" 
d="M438 139q0 -68 -52.5 -106.5t-146.5 -38.5q-62 0 -114 20q-36 15 -75 49l35 35q32 -29 59 -41q44 -18 101 -18q143 0 143 98q0 74 -92 81l-80 7q-145 12 -145 125q0 63 47 100.5t126 37.5q51 0 101 -16q35 -12 68 -35l-34 -34q-29 20 -57 29q-38 12 -78 12
q-59 0 -91 -24.5t-32 -69.5q0 -37 23.5 -56.5t74.5 -23.5l78 -7q73 -7 107 -36.5t34 -87.5z" />
    <glyph glyph-name="afii10103" unicode="&#x456;" horiz-adv-x="245" 
d="M160 682q0 -16 -11 -27.5t-26 -11.5q-16 0 -27 11t-11 26q0 16 11 27t26 11t26.5 -11t11.5 -25zM148 0h-51v482h51v-482z" />
    <glyph glyph-name="afii10104" unicode="&#x457;" horiz-adv-x="245" 
d="M264 639q0 -16 -11 -27.5t-26 -11.5q-16 0 -27 11t-11 26q0 16 11 27t26 11t26.5 -11t11.5 -25zM57 639q0 -16 -11 -27.5t-26 -11.5q-16 0 -27 11t-11 26q0 16 11 27t26 11t26.5 -11t11.5 -25zM148 0h-51v482h51v-482z" />
    <glyph glyph-name="afii10105" unicode="&#x458;" horiz-adv-x="245" 
d="M160 682q0 -16 -11 -27.5t-26 -11.5q-16 0 -27 11t-11 26q0 16 11 27t26 11t26.5 -11t11.5 -25zM148 -105q0 -59 -30.5 -92t-85.5 -33h-44v45h35q40 0 57 18.5t17 62.5v586h51v-587z" />
    <glyph glyph-name="afii10106" unicode="&#x459;" horiz-adv-x="812" 
d="M772 142q0 -64 -40.5 -103t-108.5 -39h-212v439h-195l-7 -237q-5 -202 -151 -202h-32v43h25q20 0 35.5 5.5t33 22.5t28 55t11.5 95l7 261h296v-198h161q68 0 108.5 -39t40.5 -103zM721 142q0 48 -27.5 73.5t-78.5 25.5h-153v-198h153q52 0 79 25.5t27 73.5z" />
    <glyph glyph-name="afii10107" unicode="&#x45a;" horiz-adv-x="812" 
d="M772 142q0 -64 -40.5 -103t-108.5 -39h-212v241h-263v-241h-51v482h51v-198h263v198h51v-198h161q68 0 108.5 -39t40.5 -103zM721 142q0 48 -27.5 73.5t-78.5 25.5h-153v-198h153q52 0 79 25.5t27 73.5z" />
    <glyph glyph-name="afii10108" unicode="&#x45b;" horiz-adv-x="559" 
d="M468 0h-51v179q0 70 -34.5 107t-98.5 37t-100 -38t-36 -106v-179h-51v444h-61v38h61v230h51v-230h254v-38h-254v-139q32 34 64.5 48.5t78.5 14.5q82 0 129.5 -48.5t47.5 -131.5v-188z" />
    <glyph glyph-name="afii10109" unicode="&#x45c;" horiz-adv-x="524" 
d="M357 737l-106 -147h-58l97 147h67zM492 0h-64l-172 248l-106 -120v-128h-51v482h51v-282l249 282h65l-174 -196z" />
    <glyph glyph-name="afii10110" unicode="&#x45e;" horiz-adv-x="430" 
d="M374 702q-28 -125 -159 -125t-159 125h47q21 -80 113 -80q90 0 111 80h47zM416 482l-224 -613q-14 -38 -33 -56q-34 -31 -91 -31h-24v45h19q38 0 56 13.5t32 52.5l39 107l-176 482h56l145 -422l145 422h56z" />
    <glyph glyph-name="afii10193" unicode="&#x45f;" horiz-adv-x="559" 
d="M462 0h-157v-160h-51v160h-157v482h51v-439h263v439h51v-482z" />
    <glyph glyph-name="afii10050" unicode="&#x490;" horiz-adv-x="564" 
d="M540 664h-368v-664h-54v712h368v190h54v-238z" />
    <glyph glyph-name="afii10098" unicode="&#x491;" horiz-adv-x="411" 
d="M401 439h-249v-439h-51v482h249v160h51v-203z" />
    <glyph glyph-name="endash" unicode="&#x2013;" horiz-adv-x="500" 
d="M500 240h-500v47h500v-47z" />
    <glyph glyph-name="emdash" unicode="&#x2014;" horiz-adv-x="1000" 
d="M1000 240h-1000v47h1000v-47z" />
    <glyph glyph-name="quoteleft" unicode="&#x2018;" horiz-adv-x="260" 
d="M181 762l-37 -173h-66l54 173h49z" />
    <glyph glyph-name="quoteright" unicode="&#x2019;" horiz-adv-x="260" 
d="M181 762l-54 -173h-49l37 173h66z" />
    <glyph glyph-name="quotesinglbase" unicode="&#x201a;" horiz-adv-x="260" 
d="M181 76l-54 -173h-49l37 173h66z" />
    <glyph glyph-name="quotedblleft" unicode="&#x201c;" horiz-adv-x="416" 
d="M337 762l-37 -173h-66l54 173h49zM181 762l-37 -173h-66l54 173h49z" />
    <glyph glyph-name="quotedblright" unicode="&#x201d;" horiz-adv-x="416" 
d="M337 762l-54 -173h-49l37 173h66zM181 762l-54 -173h-49l37 173h66z" />
    <glyph glyph-name="quotedblbase" unicode="&#x201e;" horiz-adv-x="416" 
d="M337 76l-54 -173h-49l37 173h66zM181 76l-54 -173h-49l37 173h66z" />
    <glyph glyph-name="dagger" unicode="&#x2020;" horiz-adv-x="614" 
d="M534 457h-203v-457h-51v457h-200v45h200v210h51v-210h203v-45z" />
    <glyph glyph-name="daggerdbl" unicode="&#x2021;" horiz-adv-x="614" 
d="M534 -20h-203v-210h-51v210h-200v45h200v432h-200v45h200v210h51v-210h203v-45h-203v-432h203v-45z" />
    <glyph glyph-name="bullet" unicode="&#x2022;" horiz-adv-x="546" 
d="M436 337q0 -70 -47.5 -118t-115.5 -48q-67 0 -115 47.5t-48 115.5t48 115.5t115 47.5q66 0 114.5 -47.5t48.5 -112.5z" />
    <glyph glyph-name="ellipsis" unicode="&#x2026;" horiz-adv-x="724" 
d="M638 44q0 -19 -13.5 -33t-32.5 -14t-32.5 13.5t-13.5 32.5t13.5 32.5t32.5 13.5t32.5 -13.5t13.5 -31.5zM408 44q0 -19 -13.5 -33t-32.5 -14t-32.5 13.5t-13.5 32.5t13.5 32.5t32.5 13.5t32.5 -13.5t13.5 -31.5zM178 44q0 -19 -13.5 -33t-32.5 -14t-32.5 13.5t-13.5 32.5
t13.5 32.5t32.5 13.5t32.5 -13.5t13.5 -31.5z" />
    <glyph glyph-name="perthousand" unicode="&#x2030;" horiz-adv-x="1168" 
d="M1099 127q0 -59 -36.5 -96.5t-94.5 -37.5t-95 37.5t-37 96.5v107q0 59 37 96.5t95 37.5t94.5 -37.5t36.5 -96.5v-107zM759 127q0 -59 -36.5 -96.5t-94.5 -37.5t-95 37.5t-37 96.5v107q0 59 37 96.5t95 37.5t94.5 -37.5t36.5 -96.5v-107zM603 712l-332 -712h-45l332 712
h45zM332 478q0 -59 -36.5 -96t-94.5 -37t-95 37t-37 96v107q0 59 37 96.5t95 37.5t94.5 -37.5t36.5 -96.5v-107zM1055 128v104q0 98 -87 98q-88 0 -88 -98v-103q0 -98 89 -98q86 0 86 97zM715 129v103q0 98 -88 98q-87 0 -87 -98v-103q0 -98 88 -98q87 0 87 98zM288 480v103
q0 98 -88 98q-87 0 -87 -98v-103q0 -97 88 -97q87 0 87 97z" />
    <glyph glyph-name="guilsinglleft" unicode="&#x2039;" horiz-adv-x="320" 
d="M238 69l-196 196l196 196v-66l-130 -130l130 -130v-66z" />
    <glyph glyph-name="guilsinglright" unicode="&#x203a;" horiz-adv-x="320" 
d="M278 265l-196 -196v66l130 130l-130 130v66z" />
    <glyph glyph-name="afii61352" unicode="&#x2116;" horiz-adv-x="954" 
d="M880 246q0 -59 -36.5 -96.5t-94.5 -37.5t-95 37.5t-37 96.5v107q0 59 37 96.5t95 37.5t94.5 -37.5t36.5 -96.5v-107zM886 0h-262v43h262v-43zM548 0h-51l-361 616v-616h-51v712h51l361 -614v614h51v-712zM832 248v103q0 94 -84 94q-83 0 -83 -94v-103q0 -94 84 -94
q83 0 83 94z" />
    <glyph glyph-name="trademark" unicode="&#x2122;" horiz-adv-x="809" 
d="M753 285h-44v328l-110 -218h-46l-110 218v-328h-44v427h44l133 -270l133 270h44v-427zM320 671h-122v-386h-44v386h-122v41h288v-41z" />
    <glyph glyph-name="radical" unicode="&#x221a;" horiz-adv-x="550" 
d="M520 664h-88l-217 -664h-46l-159 482h56l126 -387l199 617h129v-48z" />
    <glyph glyph-name="infinity" unicode="&#x221e;" horiz-adv-x="792" 
d="M720 260q0 -64 -42 -106t-106 -42q-55 0 -93 27t-83 81q-45 -54 -83 -81.5t-93 -27.5q-64 0 -106 42.5t-42 106.5q0 65 42 107.5t106 42.5q54 0 93 -28t83 -82q30 36 49.5 55.5t53.5 37t73 17.5q64 0 106 -42.5t42 -107.5zM672 260q0 45 -28.5 74.5t-72.5 29.5
q-10 0 -20 -2t-20 -6.5t-17.5 -8.5t-17.5 -12.5l-15 -13t-15 -15.5l-13.5 -15l-14 -16.5t-12.5 -14.5q1 -1 12.5 -14.5l14 -16.5l13 -15t15.5 -15.5t15 -12.5t17.5 -12t17.5 -8t19.5 -6.5t20.5 -1.5q44 0 72.5 28.5t28.5 73.5zM366 260q-2 2 -14 16.5l-15.5 19t-15.5 17
t-18 17l-17.5 13.5t-20.5 12.5t-20.5 6.5t-23.5 3q-44 0 -72.5 -29.5t-28.5 -75.5q0 -45 28.5 -73.5t72.5 -28.5q23 0 43 7.5t41.5 28t29 29z" />
    <glyph glyph-name="approxequal" unicode="&#x2248;" 
d="M461 357q-44 -43 -70 -54q-18 -8 -43 -8q-41 0 -92 25q-58 29 -91 29q-22 0 -37 -8.5t-44 -36.5l-31 31q44 43 70 54q18 8 43 8q26 0 110 -33q52 -21 73 -21q22 0 37 8.5t44 36.5zM461 197q-44 -43 -70 -54q-18 -8 -43 -8q-41 0 -92 25q-58 29 -91 29q-22 0 -37 -8.5
t-44 -36.5l-31 31q44 43 70 54q18 8 43 8q26 0 110 -33q52 -21 73 -21q22 0 37 8.5t44 36.5z" />
    <glyph glyph-name="notequal" unicode="&#x2260;" 
d="M461 163h-224l-89 -163l-42 22l78 141h-131v47h156l57 106h-213v47h238l74 138l42 -22l-62 -116h116v-47h-142l-56 -106h198v-47z" />
    <glyph glyph-name="lessequal" unicode="&#x2264;" 
d="M473 118l-432 167v54l432 168v-54l-366 -141l366 -140v-54zM473 0h-432v48h432v-48z" />
    <glyph glyph-name="greaterequal" unicode="&#x2265;" 
d="M473 285l-432 -167v54l366 140l-366 141v54l432 -168v-54zM473 0h-432v48h432v-48z" />
    <glyph glyph-name="hyphenminus" horiz-adv-x="426" 
d="M344 240h-262v47h262v-47z" />
    <glyph glyph-name="periodcentered" horiz-adv-x="264" 
d="M178 261q0 -19 -13.5 -33t-32.5 -14t-32.5 13.5t-13.5 32.5t13.5 32.5t32.5 13.5t32.5 -13.5t13.5 -31.5z" />
    </font>
</defs>
</svg>
